<?xml version="1.0" standalone="no"?><!DOCTYPE svg PUBLIC "-//W3C//DTD SVG 1.1//EN" "http://www.w3.org/Graphics/SVG/1.1/DTD/svg11.dtd"><svg t="1676013732509" class="icon" viewBox="0 0 1024 1024" version="1.1" xmlns="http://www.w3.org/2000/svg" p-id="1997" xmlns:xlink="http://www.w3.org/1999/xlink" width="200" height="200"><path d="M768 128h-50.090667A128 128 0 0 0 597.333333 42.666667h-170.666666a128 128 0 0 0-120.576 85.333333H256a128 128 0 0 0-128 128v597.333333a128 128 0 0 0 128 128h512a128 128 0 0 0 128-128V256a128 128 0 0 0-128-128z m-341.333333 0h170.666666a42.666667 42.666667 0 0 1 0 85.333333h-170.666666a42.666667 42.666667 0 0 1 0-85.333333z m384 725.333333a42.666667 42.666667 0 0 1-42.666667 42.666667H256a42.666667 42.666667 0 0 1-42.666667-42.666667V256a42.666667 42.666667 0 0 1 42.666667-42.666667h50.090667A128 128 0 0 0 426.666667 298.666667h170.666666a128 128 0 0 0 120.576-85.333334H768a42.666667 42.666667 0 0 1 42.666667 42.666667v597.333333z" p-id="1998"></path></svg>
