<svg t="1685697270573" class="icon" viewBox="0 0 1024 1024" version="1.1" xmlns="http://www.w3.org/2000/svg" p-id="17854" width="200" height="200"><path d="M647.46 689.182l41.365-41.365L925.208 884.2l-41.365 41.366zM866.2 98.2h59.1v591h-59.1zM157 98.2h709.2v59.1H157z" fill="#616161" p-id="17855"></path><path d="M157 866.5h531.9v59.1h-591V98.2H157z" fill="#616161" p-id="17856"></path><path d="M511.6 748.3c-130 0-236.4-106.4-236.4-236.4s106.4-236.4 236.4-236.4S748 381.8 748 511.9 641.6 748.3 511.6 748.3z m0-59.1c100.5 0 177.3-76.8 177.3-177.3 0-100.5-76.8-177.3-177.3-177.3s-177.3 76.8-177.3 177.3c0 100.4 76.8 177.3 177.3 177.3z m0 0" fill="#616161" p-id="17857"></path></svg>
