<svg t="1686106501000" viewBox="0 0 1024 1024" version="1.1" xmlns="http://www.w3.org/2000/svg" p-id="2693" width="200" height="200"><path d="M832 928H192c-52.8 0-96-43.2-96-96V192c0-52.8 43.2-96 96-96h320c17.6 0 32 14.4 32 32s-14.4 32-32 32H192c-17.6 0-32 14.4-32 32v640c0 17.6 14.4 32 32 32h640c17.6 0 32-14.4 32-32V512c0-17.6 14.4-32 32-32s32 14.4 32 32v320c0 52.8-43.2 96-96 96z" p-id="2694"></path><path d="M404.8 603.2c-12.8-12.8-12.8-33.6 0-44.8L844.8 118.4c12.8-12.8 33.6-12.8 44.8 0 12.8 12.8 12.8 33.6 0 44.8L451.2 603.2c-12.8 12.8-33.6 12.8-46.4 0z" p-id="2695"></path></svg>
